<svg width="23" height="39" viewBox="0 0 23 39" fill="none" xmlns="http://www.w3.org/2000/svg">
<path d="M1.00092 15.1736V12.784L11.7325 1L22.3267 12.6466V15.1401L11.7325 3.49018L1 15.2201L1.00092 15.1736Z" fill="#0F2251" stroke="#0F2251" stroke-width="0.452381" stroke-miterlimit="10"/>
<path d="M1.03955 20.1603V17.8042L1.85399 16.9998L2.69187 16.1686L3.04711 15.8201L11.7712 7.18652L20.3142 15.6491L20.7734 16.1049L21.5073 16.8289L22.3653 17.6802V20.0363L20.3779 18.0689L19.5903 17.288L19.1847 16.8858L11.7712 9.54601L4.17322 17.0601L3.87829 17.3551L2.98006 18.2399L1.03955 20.1603Z" fill="#0F2251" stroke="#0F2251" stroke-width="0.452381" stroke-miterlimit="10"/>
<path d="M1.03955 24.4232V22.3318L4.41788 19.8182L5.52054 18.9971L5.76855 18.8127L11.7712 14.3418L17.5659 18.6653L17.9346 18.9434L18.9166 19.6741L22.3653 22.248V24.3394L17.7838 20.9175L16.7381 20.1399L16.4331 19.9087L11.7712 16.4298L6.90137 20.0561L6.71706 20.1936L5.55074 21.065L1.03955 24.4232Z" fill="#0F2251" stroke="#0F2251" stroke-width="0.452381" stroke-miterlimit="10"/>
<path d="M1.03906 34.8922V33.213L11.7707 32.6299L11.8176 32.6332L22.3648 33.2063V34.8855L11.7707 34.309L1.03906 34.8922Z" fill="#0F2251" stroke="#0F2251" stroke-width="0.452381" stroke-miterlimit="10"/>
<path d="M22.3648 36.4429H1.03906V38.1186H22.3648V36.4429Z" fill="#0F2251" stroke="#0F2251" stroke-width="0.452381" stroke-miterlimit="10"/>
<path d="M1.03955 28.2394V26.3492L7.35046 23.0446L8.80506 22.2804L8.88549 22.2402L11.8985 20.6616L14.4825 22.0492L14.7071 22.1698L16.0075 22.8669L22.3653 26.2788V28.1825L14.8445 24.1439L13.4704 23.4065L13.3229 23.3261L11.8884 22.5552L10.0485 23.5171L10.0451 23.5205L8.51679 24.3215L1.03955 28.2394Z" fill="#0F2251" stroke="#0F2251" stroke-width="0.452381" stroke-miterlimit="10"/>
<path d="M1.03955 31.7755V30.0361L10.4741 27.4085L11.6706 27.0767L12.7532 27.3716L22.3653 30.0059V31.7453L11.6773 28.8161L1.03955 31.7755Z" fill="#0F2251" stroke="#0F2251" stroke-width="0.452381" stroke-miterlimit="10"/>
</svg>
