<svg width="681" height="339" viewBox="0 0 681 339" fill="none" xmlns="http://www.w3.org/2000/svg">
<g filter="url(#filter0_d_214_458)">
<rect x="10.5" y="6.5" width="660" height="318" rx="9.5" fill="white" stroke="#C1C1C1"/>
<circle cx="50" cy="39.1924" r="5" fill="#D9D9D9"/>
<circle cx="67.6924" cy="39.1924" r="5" fill="#D9D9D9"/>
<circle cx="85.3848" cy="39.1924" r="5" fill="#D9D9D9"/>
<path d="M48.0538 136.184C46.6138 134.216 45.7978 131.688 45.7978 129.112C45.7978 126.536 46.6138 124.024 48.0538 122.04L48.7738 122.584C47.7498 124.616 47.1098 126.44 47.1098 129.112C47.1098 131.768 47.7498 133.608 48.7738 135.624L48.0538 136.184ZM49.8785 127.672C49.8785 124.52 52.0065 122.152 55.1745 122.152C58.3265 122.152 60.4705 124.52 60.4705 127.672C60.4705 130.824 58.3265 133.192 55.1745 133.192C52.0065 133.192 49.8785 130.824 49.8785 127.672ZM59.0945 127.672C59.0945 125.176 57.5585 123.336 55.1745 123.336C52.7745 123.336 51.2545 125.176 51.2545 127.672C51.2545 130.152 52.7745 132.008 55.1745 132.008C57.5585 132.008 59.0945 130.152 59.0945 127.672ZM62.4969 133V125.272H63.6969V126.52C64.3209 125.704 65.2169 125.112 66.2729 125.112V126.344C66.1289 126.312 65.9849 126.296 65.7929 126.296C65.0569 126.296 64.0489 126.904 63.6969 127.528V133H62.4969ZM73.3781 133V131.848C72.8021 132.632 71.8581 133.192 70.7701 133.192C68.7541 133.192 67.3301 131.656 67.3301 129.144C67.3301 126.68 68.7381 125.08 70.7701 125.08C71.8101 125.08 72.7541 125.592 73.3781 126.44V122.328H74.5781V133H73.3781ZM73.3781 130.904V127.4C72.9461 126.728 72.0181 126.152 71.0581 126.152C69.5061 126.152 68.5781 127.432 68.5781 129.144C68.5781 130.856 69.5061 132.12 71.0581 132.12C72.0181 132.12 72.9461 131.576 73.3781 130.904ZM76.7413 132.28C76.7413 131.8 77.1413 131.4 77.6213 131.4C78.1013 131.4 78.5013 131.8 78.5013 132.28C78.5013 132.76 78.1013 133.16 77.6213 133.16C77.1413 133.16 76.7413 132.76 76.7413 132.28ZM84.4578 133V131.944C88.2977 128.92 90.3778 127.144 90.3778 125.304C90.3778 123.944 89.2578 123.352 88.1538 123.352C86.8738 123.352 85.8818 123.896 85.2578 124.696L84.4418 123.848C85.2578 122.776 86.6498 122.168 88.1538 122.168C89.9298 122.168 91.7378 123.176 91.7378 125.304C91.7378 127.48 89.5298 129.464 86.5538 131.816H91.7858V133H84.4578ZM93.816 127.672C93.816 125.064 94.968 122.168 97.896 122.168C100.808 122.168 101.976 125.064 101.976 127.672C101.976 130.264 100.808 133.192 97.896 133.192C94.968 133.192 93.816 130.264 93.816 127.672ZM100.616 127.672C100.616 125.544 99.928 123.352 97.896 123.352C95.864 123.352 95.176 125.544 95.176 127.672C95.176 129.8 95.864 132.008 97.896 132.008C99.928 132.008 100.616 129.8 100.616 127.672ZM103.661 133V131.944C107.501 128.92 109.581 127.144 109.581 125.304C109.581 123.944 108.461 123.352 107.357 123.352C106.077 123.352 105.085 123.896 104.461 124.696L103.645 123.848C104.461 122.776 105.853 122.168 107.357 122.168C109.133 122.168 110.941 123.176 110.941 125.304C110.941 127.48 108.733 129.464 105.757 131.816H110.989V133H103.661ZM113.067 133V131.944C116.907 128.92 118.987 127.144 118.987 125.304C118.987 123.944 117.867 123.352 116.763 123.352C115.483 123.352 114.491 123.896 113.867 124.696L113.051 123.848C113.867 122.776 115.259 122.168 116.763 122.168C118.539 122.168 120.347 123.176 120.347 125.304C120.347 127.48 118.139 129.464 115.163 131.816H120.395V133H113.067ZM122.089 129.656V128.6H125.929V129.656H122.089ZM127.222 127.672C127.222 125.064 128.374 122.168 131.302 122.168C134.214 122.168 135.382 125.064 135.382 127.672C135.382 130.264 134.214 133.192 131.302 133.192C128.374 133.192 127.222 130.264 127.222 127.672ZM134.022 127.672C134.022 125.544 133.334 123.352 131.302 123.352C129.27 123.352 128.582 125.544 128.582 127.672C128.582 129.8 129.27 132.008 131.302 132.008C133.334 132.008 134.022 129.8 134.022 127.672ZM137.019 127.672C137.019 125.064 138.171 122.168 141.099 122.168C144.011 122.168 145.179 125.064 145.179 127.672C145.179 130.264 144.011 133.192 141.099 133.192C138.171 133.192 137.019 130.264 137.019 127.672ZM143.819 127.672C143.819 125.544 143.131 123.352 141.099 123.352C139.067 123.352 138.379 125.544 138.379 127.672C138.379 129.8 139.067 132.008 141.099 132.008C143.131 132.008 143.819 129.8 143.819 127.672ZM147.056 131.48L147.872 130.6C148.576 131.496 149.504 132.008 150.816 132.008C152.272 132.008 153.28 131.016 153.28 129.72C153.28 128.312 152.272 127.416 150.832 127.416C149.888 127.416 149.088 127.72 148.368 128.424L147.392 128.088V122.328H153.92V123.512H148.72V127.224C149.232 126.712 150.144 126.264 151.216 126.264C152.992 126.264 154.608 127.48 154.608 129.672C154.608 131.848 152.96 133.192 150.816 133.192C149.008 133.192 147.856 132.536 147.056 131.48ZM155.902 131.432L156.686 130.6C157.31 131.432 158.398 132.008 159.661 132.008C161.214 132.008 162.158 131.24 162.158 130.008C162.158 128.68 161.07 128.12 159.502 128.12C159.054 128.12 158.558 128.12 158.398 128.136V126.92C158.574 126.936 159.07 126.936 159.502 126.936C160.846 126.936 161.982 126.408 161.982 125.176C161.982 123.992 160.894 123.352 159.598 123.352C158.43 123.352 157.566 123.8 156.782 124.648L156.046 123.816C156.814 122.888 158.046 122.168 159.694 122.168C161.742 122.168 163.31 123.208 163.31 125.016C163.31 126.552 162.014 127.32 161.006 127.496C161.982 127.576 163.47 128.408 163.47 130.12C163.47 131.896 162.046 133.192 159.694 133.192C157.886 133.192 156.558 132.392 155.902 131.432ZM173.685 130.008C174.565 130.344 175.157 130.904 175.157 131.944C175.157 133.432 173.909 134.296 172.117 134.296C170.549 134.296 169.685 133.704 169.013 133.048L169.621 132.264C170.101 132.84 170.981 133.416 172.117 133.416C173.221 133.416 173.989 132.904 173.989 132.024C173.989 131.128 173.013 130.872 171.941 130.6C170.645 130.264 169.205 129.912 169.205 128.36C169.205 127.224 170.085 126.568 171.045 126.312C169.925 125.96 169.205 125.4 169.205 124.344C169.205 123.16 170.261 122.168 172.085 122.168C173.525 122.168 174.421 122.712 174.933 123.304L174.389 124.024C173.845 123.368 172.949 123.064 172.117 123.064C171.093 123.064 170.373 123.56 170.373 124.344C170.373 125.144 171.285 125.352 172.309 125.592C173.637 125.896 175.157 126.264 175.157 127.96C175.157 128.856 174.661 129.576 173.685 130.008ZM172.165 126.648C170.773 127 170.373 127.544 170.373 128.232C170.373 129.176 171.493 129.4 172.645 129.688C173.493 129.32 173.973 128.872 173.973 128.12C173.973 127.192 173.045 126.872 172.165 126.648ZM182.926 133V124.088L181.214 125.896L180.414 125.08L183.086 122.328H184.254V133H182.926ZM191.084 133V130.296H186.012V129.192L190.588 122.328H192.412V129.128H193.916V130.296H192.412V133H191.084ZM191.084 123.56L187.34 129.128H191.084V123.56ZM195.926 135.032L195.334 134.536C195.846 134.2 196.31 133.576 196.374 133.048C196.342 133.064 196.23 133.08 196.15 133.08C195.702 133.08 195.382 132.744 195.382 132.264C195.382 131.8 195.75 131.4 196.23 131.4C196.758 131.4 197.238 131.848 197.238 132.616C197.238 133.592 196.662 134.504 195.926 135.032ZM203.098 133V131.944C206.938 128.92 209.018 127.144 209.018 125.304C209.018 123.944 207.898 123.352 206.794 123.352C205.514 123.352 204.522 123.896 203.898 124.696L203.082 123.848C203.898 122.776 205.29 122.168 206.794 122.168C208.57 122.168 210.378 123.176 210.378 125.304C210.378 127.48 208.17 129.464 205.194 131.816H210.426V133H203.098ZM212.457 127.672C212.457 125.064 213.609 122.168 216.537 122.168C219.449 122.168 220.617 125.064 220.617 127.672C220.617 130.264 219.449 133.192 216.537 133.192C213.609 133.192 212.457 130.264 212.457 127.672ZM219.257 127.672C219.257 125.544 218.569 123.352 216.537 123.352C214.505 123.352 213.817 125.544 213.817 127.672C213.817 129.8 214.505 132.008 216.537 132.008C218.569 132.008 219.257 129.8 219.257 127.672ZM222.302 133V131.944C226.141 128.92 228.222 127.144 228.222 125.304C228.222 123.944 227.102 123.352 225.998 123.352C224.718 123.352 223.726 123.896 223.102 124.696L222.286 123.848C223.102 122.776 224.494 122.168 225.998 122.168C227.774 122.168 229.582 123.176 229.582 125.304C229.582 127.48 227.374 129.464 224.398 131.816H229.63V133H222.302ZM231.708 133V131.944C235.548 128.92 237.628 127.144 237.628 125.304C237.628 123.944 236.508 123.352 235.404 123.352C234.124 123.352 233.132 123.896 232.508 124.696L231.692 123.848C232.508 122.776 233.9 122.168 235.404 122.168C237.18 122.168 238.988 123.176 238.988 125.304C238.988 127.48 236.78 129.464 233.804 131.816H239.036V133H231.708ZM241.21 132.28C241.21 131.8 241.61 131.4 242.09 131.4C242.57 131.4 242.97 131.8 242.97 132.28C242.97 132.76 242.57 133.16 242.09 133.16C241.61 133.16 241.21 132.76 241.21 132.28ZM245.89 129.112C245.89 126.44 245.25 124.616 244.21 122.584L244.93 122.04C246.386 124.024 247.202 126.536 247.202 129.112C247.202 131.688 246.386 134.216 244.93 136.184L244.21 135.624C245.25 133.608 245.89 131.768 245.89 129.112Z" fill="#777676"/>
<path d="M49.0625 135.512H164.344V136.376H49.0625V135.512Z" fill="#777676"/>
<a href="https://library.municode.com/ca/los_angeles_county/ordinances/code_of_ordinances?nodeId=1186266">
<rect fill="black" fill-opacity="0" x="4.0625" y="10.9824" width="115.287" height="16"/>
</a>
<path d="M44.6009 100V75.988H55.1489C60.1889 75.988 62.9969 79.444 62.9969 83.512C62.9969 87.58 60.1529 91.036 55.1489 91.036H48.8129V100H44.6009ZM58.6769 83.512C58.6769 81.208 56.9489 79.696 54.5729 79.696H48.8129V87.328H54.5729C56.9489 87.328 58.6769 85.816 58.6769 83.512ZM66.3953 100V75.988H70.1753V100H66.3953ZM86.8149 100V97.696C85.5549 99.1 83.3949 100.432 80.6589 100.432C76.9149 100.432 75.0789 98.488 75.0789 94.924V82.612H78.8589V93.556C78.8589 96.256 80.2269 97.084 82.3509 97.084C84.2589 97.084 85.9149 96.004 86.8149 94.816V82.612H90.5949V100H86.8149ZM116.817 100V88.66C116.817 86.788 115.989 85.528 113.973 85.528C112.281 85.528 110.697 86.716 109.941 87.832V100H106.161V88.66C106.161 86.788 105.333 85.528 103.281 85.528C101.625 85.528 100.077 86.716 99.2846 87.868V100H95.5046V82.612H99.2846V84.988C100.005 83.908 102.309 82.18 104.937 82.18C107.529 82.18 109.113 83.476 109.689 85.384C110.697 83.8 113.001 82.18 115.593 82.18C118.797 82.18 120.597 83.908 120.597 87.436V100H116.817ZM125.493 100V75.988H129.273V85.024C130.641 83.188 132.657 82.18 134.853 82.18C139.317 82.18 142.557 85.708 142.557 91.324C142.557 97.048 139.281 100.432 134.853 100.432C132.585 100.432 130.605 99.352 129.273 97.624V100H125.493ZM129.273 94.78C130.101 96.076 131.973 97.084 133.737 97.084C136.761 97.084 138.669 94.708 138.669 91.324C138.669 87.94 136.761 85.528 133.737 85.528C131.973 85.528 130.101 86.608 129.273 87.904V94.78ZM148.283 79.732C147.023 79.732 145.943 78.688 145.943 77.392C145.943 76.096 147.023 75.052 148.283 75.052C149.579 75.052 150.623 76.096 150.623 77.392C150.623 78.688 149.579 79.732 148.283 79.732ZM146.411 100V82.612H150.191V100H146.411ZM166.83 100V89.128C166.83 86.428 165.462 85.528 163.338 85.528C161.394 85.528 159.738 86.68 158.874 87.868V100H155.094V82.612H158.874V84.988C160.026 83.62 162.258 82.18 164.994 82.18C168.738 82.18 170.61 84.196 170.61 87.76V100H166.83ZM175.304 104.464L177.068 101.728C178.472 103.348 180.272 103.96 182.576 103.96C185.06 103.96 187.724 102.808 187.724 99.244V97.156C186.392 98.884 184.412 100.036 182.144 100.036C177.716 100.036 174.44 96.832 174.44 91.108C174.44 85.492 177.68 82.18 182.144 82.18C184.34 82.18 186.32 83.188 187.724 85.024V82.612H191.504V99.1C191.504 105.364 186.86 107.056 182.576 107.056C179.624 107.056 177.428 106.408 175.304 104.464ZM187.724 94.348V87.868C186.896 86.572 185.024 85.528 183.26 85.528C180.272 85.528 178.364 87.76 178.364 91.108C178.364 94.456 180.272 96.688 183.26 96.688C185.024 96.688 186.896 95.644 187.724 94.348Z" fill="black"/>
<rect x="42" y="158" width="573" height="15" rx="7.5" fill="#EEEEEE"/>
<rect x="42" y="218" width="573" height="15" rx="7.5" fill="#EEEEEE"/>
<rect x="42" y="188" width="573" height="15" rx="7.5" fill="#EEEEEE"/>
<rect x="42" y="248" width="573" height="15" rx="7.5" fill="#EEEEEE"/>
<rect x="42" y="278" width="265" height="15" rx="7.5" fill="#EEEEEE"/>
<rect x="262.5" y="106.996" width="178.238" height="38.4108" rx="8.41076" fill="#FFEAEA"/>
<path d="M283.414 134.499C287.996 134.499 291.711 130.784 291.711 126.201C291.711 121.619 287.996 117.904 283.414 117.904C278.831 117.904 275.116 121.619 275.116 126.201C275.116 130.784 278.831 134.499 283.414 134.499Z" stroke="#BC0F0F" stroke-width="1.65952" stroke-linecap="round" stroke-linejoin="round"/>
<path d="M283.414 122.883V126.202" stroke="#BC0F0F" stroke-width="1.65952" stroke-linecap="round" stroke-linejoin="round"/>
<path d="M283.414 129.52H283.422" stroke="#BC0F0F" stroke-width="1.65952" stroke-linecap="round" stroke-linejoin="round"/>
<path d="M308.982 131.201L303.078 123.009V131.201H301.478V120.529H303.126L308.934 128.529V120.529H310.534V131.201H308.982ZM316.292 131.393C313.892 131.393 312.388 129.569 312.388 127.329C312.388 125.105 313.892 123.281 316.292 123.281C318.708 123.281 320.196 125.105 320.196 127.329C320.196 129.569 318.708 131.393 316.292 131.393ZM316.292 130.113C317.844 130.113 318.692 128.801 318.692 127.329C318.692 125.873 317.844 124.561 316.292 124.561C314.756 124.561 313.892 125.873 313.892 127.329C313.892 128.801 314.756 130.113 316.292 130.113ZM324.152 131.393C322.936 131.393 322.312 130.705 322.312 129.489V124.737H321.032V123.473H322.312V121.361H323.752V123.473H325.32V124.737H323.752V129.169C323.752 129.713 324.008 130.113 324.504 130.113C324.84 130.113 325.144 129.969 325.288 129.809L325.656 130.897C325.352 131.185 324.904 131.393 324.152 131.393ZM331.744 122.177C331.248 122.177 330.816 121.777 330.816 121.265C330.816 120.753 331.248 120.337 331.744 120.337C332.256 120.337 332.672 120.753 332.672 121.265C332.672 121.777 332.256 122.177 331.744 122.177ZM331.04 131.201V123.473H332.48V131.201H331.04ZM339.99 131.201V126.257C339.99 124.977 339.334 124.561 338.342 124.561C337.446 124.561 336.63 125.105 336.214 125.681V131.201H334.774V123.473H336.214V124.561C336.726 123.937 337.75 123.281 338.95 123.281C340.582 123.281 341.43 124.145 341.43 125.777V131.201H339.99ZM347.357 127.329C347.357 125.009 348.957 123.281 351.293 123.281C352.749 123.281 353.629 123.889 354.189 124.641L353.229 125.521C352.765 124.865 352.141 124.561 351.357 124.561C349.837 124.561 348.861 125.729 348.861 127.329C348.861 128.929 349.837 130.113 351.357 130.113C352.141 130.113 352.765 129.793 353.229 129.153L354.189 130.033C353.629 130.785 352.749 131.393 351.293 131.393C348.957 131.393 347.357 129.649 347.357 127.329ZM359.198 131.393C356.798 131.393 355.294 129.569 355.294 127.329C355.294 125.105 356.798 123.281 359.198 123.281C361.614 123.281 363.102 125.105 363.102 127.329C363.102 129.569 361.614 131.393 359.198 131.393ZM359.198 130.113C360.75 130.113 361.598 128.801 361.598 127.329C361.598 125.873 360.75 124.561 359.198 124.561C357.662 124.561 356.798 125.873 356.798 127.329C356.798 128.801 357.662 130.113 359.198 130.113ZM374.322 131.201V126.049C374.322 125.153 373.922 124.561 372.978 124.561C372.194 124.561 371.426 125.105 371.058 125.665V131.201H369.618V126.049C369.618 125.153 369.234 124.561 368.258 124.561C367.506 124.561 366.754 125.121 366.37 125.681V131.201H364.93V123.473H366.37V124.561C366.69 124.081 367.714 123.281 368.866 123.281C370.034 123.281 370.722 123.889 370.962 124.721C371.41 124.001 372.434 123.281 373.57 123.281C374.994 123.281 375.762 124.065 375.762 125.617V131.201H374.322ZM379.495 134.145H378.055V123.473H379.495V124.577C380.055 123.809 380.983 123.281 382.023 123.281C384.039 123.281 385.463 124.801 385.463 127.329C385.463 129.857 384.039 131.393 382.023 131.393C381.015 131.393 380.119 130.929 379.495 130.081V134.145ZM383.959 127.329C383.959 125.729 383.079 124.561 381.639 124.561C380.759 124.561 379.879 125.073 379.495 125.697V128.977C379.879 129.585 380.759 130.113 381.639 130.113C383.079 130.113 383.959 128.945 383.959 127.329ZM387.29 131.201V120.529H388.73V131.201H387.29ZM391.728 122.177C391.232 122.177 390.8 121.777 390.8 121.265C390.8 120.753 391.232 120.337 391.728 120.337C392.24 120.337 392.656 120.753 392.656 121.265C392.656 121.777 392.24 122.177 391.728 122.177ZM391.024 131.201V123.473H392.464V131.201H391.024ZM399.526 131.201V130.353C398.918 131.025 398.038 131.393 396.998 131.393C395.718 131.393 394.31 130.529 394.31 128.833C394.31 127.073 395.702 126.305 396.998 126.305C398.038 126.305 398.934 126.641 399.526 127.329V126.049C399.526 125.089 398.742 124.513 397.638 124.513C396.758 124.513 396.006 124.849 395.318 125.537L394.694 124.545C395.558 123.697 396.614 123.281 397.862 123.281C399.542 123.281 400.966 124.017 400.966 125.985V131.201H399.526ZM399.526 129.505V128.193C399.094 127.617 398.342 127.313 397.542 127.313C396.502 127.313 395.766 127.937 395.766 128.849C395.766 129.761 396.502 130.385 397.542 130.385C398.342 130.385 399.094 130.081 399.526 129.505ZM408.49 131.201V126.257C408.49 124.977 407.834 124.561 406.842 124.561C405.946 124.561 405.13 125.105 404.714 125.681V131.201H403.274V123.473H404.714V124.561C405.226 123.937 406.25 123.281 407.45 123.281C409.082 123.281 409.93 124.145 409.93 125.777V131.201H408.49ZM411.732 127.329C411.732 125.009 413.332 123.281 415.668 123.281C417.124 123.281 418.004 123.889 418.564 124.641L417.604 125.521C417.14 124.865 416.516 124.561 415.732 124.561C414.212 124.561 413.236 125.729 413.236 127.329C413.236 128.929 414.212 130.113 415.732 130.113C416.516 130.113 417.14 129.793 417.604 129.153L418.564 130.033C418.004 130.785 417.124 131.393 415.668 131.393C413.332 131.393 411.732 129.649 411.732 127.329ZM419.669 127.329C419.669 125.089 421.285 123.281 423.541 123.281C425.861 123.281 427.301 125.089 427.301 127.457V127.809H421.189C421.301 129.121 422.261 130.209 423.813 130.209C424.629 130.209 425.525 129.889 426.101 129.297L426.773 130.241C426.005 130.993 424.917 131.393 423.669 131.393C421.365 131.393 419.669 129.761 419.669 127.329ZM423.541 124.465C421.989 124.465 421.253 125.713 421.173 126.769H425.893C425.861 125.745 425.173 124.465 423.541 124.465Z" fill="#BC0F0F"/>
</g>
<defs>
<filter id="filter0_d_214_458" x="0.4" y="0.4" width="680.2" height="338.2" filterUnits="userSpaceOnUse" color-interpolation-filters="sRGB">
<feFlood flood-opacity="0" result="BackgroundImageFix"/>
<feColorMatrix in="SourceAlpha" type="matrix" values="0 0 0 0 0 0 0 0 0 0 0 0 0 0 0 0 0 0 127 0" result="hardAlpha"/>
<feOffset dy="4"/>
<feGaussianBlur stdDeviation="4.8"/>
<feComposite in2="hardAlpha" operator="out"/>
<feColorMatrix type="matrix" values="0 0 0 0 0 0 0 0 0 0 0 0 0 0 0 0 0 0 0.1 0"/>
<feBlend mode="normal" in2="BackgroundImageFix" result="effect1_dropShadow_214_458"/>
<feBlend mode="normal" in="SourceGraphic" in2="effect1_dropShadow_214_458" result="shape"/>
</filter>
</defs>
</svg>
